<svg xmlns="http://www.w3.org/2000/svg" xmlns:xlink="http://www.w3.org/1999/xlink" id="Layer_1" x="0px" y="0px" viewBox="0 0 1140 360" style="enable-background:new 0 0 1140 360;" xml:space="preserve"> <style type="text/css"> .st0{clip-path:url(#SVGID_00000137845640321853103780000011386427396361379217_);} .st1{fill:#1FACA1;} .st2{fill:#2E2F2F;} </style> <g> <defs> <rect id="SVGID_1_" width="1140" height="360"></rect> </defs> <clipPath id="SVGID_00000061434882800471894150000005841106675256469415_"> <use xlink:href="#SVGID_1_" style="overflow:visible;"></use> </clipPath> <g id="eVoice-logo-color" style="clip-path:url(#SVGID_00000061434882800471894150000005841106675256469415_);"> <g id="Group_5354" transform="translate(-490.908 -593.795)"> <path id="Path_2" class="st1" d="M704,658.4c-1.1,5.3-6.1,8.9-11.5,8.3c-49-5.7-95.1,24.2-109.8,71.3c-1.6,5.2-7,8.3-12.3,7.2 l0,0c-5.7-1.2-9.3-6.8-8.1-12.6c0.1-0.3,0.2-0.6,0.2-0.9c17.8-56.7,73.4-92.8,132.4-86c5.8,0.7,10,5.9,9.3,11.7 C704.1,657.7,704.1,658.1,704,658.4L704,658.4z"></path> <path id="Path_3" class="st1" d="M689.3,700.7c-1.1,5.1-5.7,8.6-10.8,8.4c-23.1-1.1-44.4,12.7-52.8,34.3c-1.9,4.8-7,7.6-12,6.5 l0,0c-5.7-1.2-9.4-6.8-8.1-12.5c0.1-0.6,0.3-1.1,0.5-1.7c11.8-30,41.3-49.1,73.4-47.7c5.8,0.3,10.4,5.2,10.1,11 C689.5,699.6,689.4,700.2,689.3,700.7L689.3,700.7z"></path> <path id="Path_2246" class="st2" d="M706.4,905.6c-13.5,0-25.7-2.3-36.4-7c-10.4-4.4-19.7-10.9-27.4-19.2 c-7.5-8.1-13.3-17.6-17.1-28c-3.9-10.7-5.9-21.9-5.8-33.3c-0.1-12,1.9-23.9,5.8-35.2c3.7-10.7,9.4-20.5,16.9-29 c7.6-8.4,16.8-15.1,27.2-19.7c10.8-4.8,23-7.2,36.7-7.2c13.7,0,25.9,2.4,36.6,7.2c10.3,4.5,19.5,11.2,27,19.5 c7.4,8.2,13.1,17.9,16.8,28.4c3.8,10.8,5.7,22.3,5.7,33.8c0,3.1-0.1,6.1-0.3,9c-0.2,2.6-0.5,5.2-0.9,7.7H672 c0.8,11.6,4.8,20.4,11.8,26.4c6.7,5.9,15.3,9.1,24.1,9c7.3,0,14.4-1.9,20.7-5.6c6.7-3.7,11.1-8.7,13.4-15.1l41.8,12.5 c-6.4,13.6-16.2,24.6-29.5,33.1C741.1,901.3,725.1,905.6,706.4,905.6z M740.6,800c-1-10.9-4.7-19.6-11.1-25.9 c-6.4-6.3-14.2-9.5-23.7-9.5c-9.6,0-17.6,3.2-23.8,9.7s-9.9,15-10.9,25.7H740.6z M825.8,669.5l51.3,165.2l50.7-165.2H981 l-82.7,236.7h-42.4l-83.6-236.7H825.8z M1043.2,905.6c-13.7,0-26-2.4-36.7-7.2c-10.3-4.5-19.6-11.2-27.2-19.5 c-7.4-8.3-13.1-18-16.8-28.5c-7.6-22-7.6-45.9,0-67.9c3.6-10.5,9.3-20.2,16.8-28.5c7.6-8.4,16.9-15.1,27.2-19.7 c10.8-4.9,23-7.4,36.7-7.4c13.7,0,25.9,2.5,36.6,7.4c10.3,4.6,19.5,11.3,27,19.7c7.4,8.3,13.2,18,16.9,28.5 c3.9,10.9,5.9,22.4,5.8,33.9c0,11.6-1.9,23-5.7,33.9c-3.6,10.5-9.3,20.2-16.8,28.5c-7.6,8.3-16.9,15-27.2,19.5 C1069.2,903.2,1056.9,905.6,1043.2,905.6L1043.2,905.6z M1007.2,816.4c0,13.6,3.4,24.4,10.1,32.6s15.4,12.3,25.8,12.3 c4.9,0.1,9.8-1.1,14.1-3.3c4.4-2.2,8.2-5.4,11.2-9.2c3.3-4.3,5.9-9.1,7.5-14.3c1.9-5.9,2.8-12,2.8-18.2 c0-13.6-3.4-24.4-10.1-32.6c-6.8-8.2-15.3-12.3-25.5-12.3c-5,0-9.8,1.1-14.3,3.3c-4.4,2.2-8.3,5.3-11.4,9.2 c-3.3,4.3-5.9,9.1-7.5,14.3C1008.1,804.1,1007.2,810.2,1007.2,816.4L1007.2,816.4z M1149.2,906.3V744.5h49.2v161.7H1149.2z M1218.1,816.1c0-11.6,1.9-23,5.8-33.9c3.7-10.5,9.5-20.2,16.9-28.5c7.6-8.3,16.9-15,27.2-19.5c10.8-4.8,23-7.2,36.7-7.2 c18.6,0,34.3,4.2,47,12.6c12.4,8.1,22.3,19.5,28.6,33l-48,15.4c-6.4-10.9-15.7-16.4-28-16.4c-10.2,0-18.8,4-25.7,12.1 s-10.3,18.9-10.3,32.5c-0.1,6.3,0.9,12.5,2.8,18.5c1.6,5.2,4.2,10,7.7,14.3c3.2,3.8,7.1,7,11.5,9.2c4.3,2.2,9.1,3.3,14,3.3 c6,0,11.8-1.6,16.9-4.8c4.9-2.9,8.8-7.2,11.4-12.3l47.9,15.7c-5.9,13.3-15.4,24.3-28.4,32.8s-28.8,12.8-47.5,12.8 c-13.5,0-25.7-2.5-36.4-7.4c-20.8-9.2-36.9-26.7-44.4-48.2C1220,839.1,1218,827.6,1218.1,816.1L1218.1,816.1z M1473.8,905.6 c-13.5,0-25.7-2.3-36.4-7c-10.4-4.4-19.7-10.9-27.4-19.2c-7.5-8.1-13.3-17.6-17.1-28c-3.9-10.7-5.9-21.9-5.8-33.3 c-0.1-12,1.9-23.9,5.8-35.2c3.7-10.7,9.4-20.5,16.9-29c7.6-8.4,16.8-15.1,27.2-19.7c10.8-4.8,23-7.2,36.7-7.2s25.9,2.4,36.6,7.2 c10.3,4.5,19.5,11.2,27,19.5c7.4,8.2,13.1,17.9,16.8,28.4c3.8,10.8,5.7,22.3,5.7,33.8c0,3.1-0.1,6.1-0.3,9 c-0.2,2.6-0.5,5.2-0.9,7.7h-119.2c0.8,11.6,4.8,20.4,11.8,26.4c6.7,5.9,15.3,9.1,24.1,9c7.3,0,14.4-1.9,20.7-5.6 c6.7-3.7,11.1-8.7,13.4-15.1l41.8,12.5c-6.4,13.6-16.2,24.6-29.5,33.1C1508.4,901.3,1492.4,905.6,1473.8,905.6L1473.8,905.6z M1507.9,800c-1-10.9-4.7-19.6-11.1-25.9s-14.2-9.5-23.7-9.5c-9.6,0-17.6,3.2-23.8,9.7c-6.2,6.4-9.9,15-10.9,25.7L1507.9,800z"></path> <circle id="Ellipse_78" class="st2" cx="1175.3" cy="693.5" r="25"></circle> </g> </g> </g> </svg>