<svg width="107" height="32" viewBox="0 0 107 32" fill="none" xmlns="http://www.w3.org/2000/svg">
    <path d="M16.008 0C24.8658 0 32.0161 7.14667 32.0161 16C32.0161 24.8533 24.8658 32 16.008 32C7.15026 32 0 24.8533 0 16C0 7.14667 7.15026 0 16.008 0ZM16.008 4.26667C9.4981 4.26667 4.26881 9.49333 4.26881 16C4.26881 22.5067 9.4981 27.7333 16.008 27.7333C22.518 27.7333 27.7473 22.5067 27.7473 16C27.7473 9.49333 22.518 4.26667 16.008 4.26667ZM43.2217 6.29333C43.4351 6.18667 43.6486 6.4 43.6486 6.50667V11.0933H52.1862C52.2929 11.0933 52.5064 11.3067 52.5064 11.4133L53.1467 14.08L53.787 16.7467L53.8937 17.0667L54.0004 16.7467L55.6012 11.4133C55.6012 11.2 55.8147 11.0933 55.9214 11.0933H60.1902C60.2969 11.0933 60.5104 11.3067 60.5104 11.4133L62.2179 17.0667L62.3246 16.7467L63.712 11.4133C63.712 11.2 63.9254 11.0933 64.0322 11.0933H74.9176C75.0243 11.0933 75.1311 11.3067 75.1311 11.4133V25.6C75.1311 25.8133 74.9176 25.92 74.8109 25.92H69.3682C69.1547 25.92 69.048 25.7067 69.048 25.6L69.0472 12.16L64.9926 25.6C64.9926 25.7867 64.8292 25.8917 64.7169 25.915L64.6725 25.92H60.1902C60.0835 25.92 59.8701 25.7067 59.8701 25.6L59.0163 22.72L58.0558 19.6267L56.1348 25.6C56.1348 25.8133 55.9214 25.92 55.8147 25.92H51.3324C51.2257 25.92 51.0123 25.7067 51.0123 25.6L46.9569 12.16V15.5733C46.9569 15.7867 46.7435 15.8933 46.6367 15.8933H43.5419V19.52C43.5419 20.5867 44.0755 21.0133 45.0359 21.0133C45.4628 21.0133 45.9964 20.9067 46.53 20.6933C46.6367 20.5867 46.8502 20.6933 46.8502 20.9067V25.1733C45.8897 25.7067 44.5023 26.0267 43.0083 26.0267C39.4865 26.0267 37.5655 24.4267 37.5655 20.9067V15.8933H36.1782C35.9647 15.8933 35.858 15.68 35.858 15.5733V11.52C35.858 11.3067 36.0714 11.2 36.1782 11.2H37.5655V8.32C37.5655 8.10667 37.6722 8 37.8857 8L43.2217 6.29333ZM98.2893 10.7733C102.985 10.7733 106.4 14.2933 106.4 18.3467C106.4 22.4 102.985 25.92 98.1826 25.92C93.4869 25.92 90.0719 22.4 90.0719 18.3467C90.0719 14.2933 93.4869 10.7733 98.2893 10.7733ZM82.0679 6.29333C82.2813 6.29333 82.388 6.4 82.388 6.50667V25.4933C82.388 25.7067 82.1746 25.8133 82.0679 25.8133H76.6251C76.4117 25.8133 76.305 25.6 76.305 25.4933V6.61333C76.305 6.4 76.5184 6.29333 76.6251 6.29333H82.0679ZM89.2181 11.0933C89.4316 11.0933 89.5383 11.3067 89.5383 11.4133V25.3867C89.5383 25.6 89.3248 25.7067 89.2181 25.7067H83.7754C83.562 25.7067 83.4552 25.4933 83.4552 25.3867V11.4133C83.4552 11.2 83.6687 11.0933 83.7754 11.0933H89.2181ZM12.0594 16.64C13.8736 16.64 15.3677 18.1333 15.3677 19.9467C15.3677 21.76 13.8736 23.2533 12.0594 23.2533C10.2451 23.2533 8.75106 21.76 8.75106 19.9467C8.75106 18.1333 10.2451 16.64 12.0594 16.64ZM19.9567 16.64C21.7709 16.64 23.265 18.1333 23.265 19.9467C23.265 21.76 21.7709 23.2533 19.9567 23.2533C18.1424 23.2533 16.6484 21.76 16.6484 19.9467C16.6484 18.1333 18.1424 16.64 19.9567 16.64ZM98.2893 15.8933C96.902 15.8933 95.9415 17.0667 95.9415 18.4533C95.9415 19.84 97.0087 21.0133 98.2893 21.0133C99.6767 21.0133 100.637 19.84 100.637 18.4533C100.637 16.96 99.57 15.7867 98.2893 15.8933ZM19.9567 8.74667C21.7709 8.74667 23.265 10.24 23.265 12.0533C23.265 13.8667 21.7709 15.36 19.9567 15.36C18.1424 15.36 16.6484 13.8667 16.6484 12.0533C16.6484 10.24 18.1424 8.74667 19.9567 8.74667ZM12.0594 8.74667C13.8736 8.74667 15.3677 10.24 15.3677 12.0533C15.3677 13.8667 13.8736 15.36 12.0594 15.36C10.2451 15.36 8.75106 13.8667 8.75106 12.0533C8.75106 10.24 10.2451 8.74667 12.0594 8.74667ZM75.0243 6.29333C75.1311 6.29333 75.2378 6.4 75.3445 6.50667V9.92C75.3445 10.1333 75.1311 10.24 75.0243 10.24H69.3682C69.1547 10.24 69.048 10.0267 69.048 9.92V6.61333C69.048 6.4 69.2614 6.29333 69.3682 6.29333H75.0243ZM89.3248 6.29333C89.5383 6.29333 89.645 6.4 89.645 6.50667V9.92C89.645 10.1333 89.4316 10.24 89.3248 10.24H83.6687C83.4552 10.24 83.3485 10.0267 83.3485 9.92V6.61333C83.3485 6.4 83.562 6.29333 83.6687 6.29333H89.3248Z" fill="#F22F46"/>
  </svg>